RedHatDisplayVF-Italic.ufo
<glyph name="exclam" format="2">
  <advance width="193"/>
  <unicode hex="0021"/>
  <outline>
    <contour>
      <point x="56" y="194" type="line"/>
      <point x="114" y="194" type="line"/>
      <point x="232" y="705" type="line"/>
      <point x="156" y="705" type="line"/>
    </contour>
    <contour>
      <point x="47" y="-6" type="curve" smooth="yes"/>
      <point x="76" y="-6"/>
      <point x="103" y="21"/>
      <point x="103" y="50" type="curve" smooth="yes"/>
      <point x="103" y="76"/>
      <point x="84" y="96"/>
      <point x="59" y="96" type="curve" smooth="yes"/>
      <point x="29" y="96"/>
      <point x="2" y="69"/>
      <point x="2" y="39" type="curve" smooth="yes"/>
      <point x="2" y="14"/>
      <point x="21" y="-6"/>
    </contour>
  </outline>
</glyph>
<glyph name="dollar" format="2">
  <advance width="555"/>
  <unicode hex="0024"/>
  <outline>
    <contour>
      <point x="182" y="-67" type="line"/>
      <point x="231" y="-67" type="line"/>
      <point x="249" y="18" type="line"/>
      <point x="264" y="18" type="line"/>
      <point x="416" y="18"/>
      <point x="517" y="99"/>
      <point x="517" y="221" type="curve" smooth="yes"/>
      <point x="517" y="303"/>
      <point x="469" y="344"/>
      <point x="344" y="380" type="curve" smooth="yes"/>
      <point x="327" y="384" type="line"/>
      <point x="376" y="617" type="line"/>
      <point x="432" y="605"/>
      <point x="485" y="577"/>
      <point x="533" y="532" type="curve"/>
      <point x="581" y="583" type="line"/>
      <point x="526" y="633"/>
      <point x="459" y="666"/>
      <point x="389" y="678" type="curve"/>
      <point x="408" y="766" type="line"/>
      <point x="359" y="766" type="line"/>
      <point x="341" y="684" type="line"/>
      <point x="325" y="684" type="line"/>
      <point x="180" y="684"/>
      <point x="86" y="609"/>
      <point x="86" y="493" type="curve" smooth="yes"/>
      <point x="86" y="415"/>
      <point x="133" y="366"/>
      <point x="230" y="338" type="curve" smooth="yes"/>
      <point x="266" y="328" type="line"/>
      <point x="214" y="84" type="line"/>
      <point x="151" y="98"/>
      <point x="94" y="136"/>
      <point x="50" y="195" type="curve"/>
      <point x="-2" y="150" type="line"/>
      <point x="51" y="81"/>
      <point x="120" y="38"/>
      <point x="201" y="23" type="curve"/>
    </contour>
    <contour>
      <point x="280" y="394" type="line"/>
      <point x="258" y="400" type="line" smooth="yes"/>
      <point x="184" y="421"/>
      <point x="154" y="451"/>
      <point x="154" y="502" type="curve" smooth="yes"/>
      <point x="154" y="575"/>
      <point x="220" y="623"/>
      <point x="318" y="623" type="curve" smooth="yes"/>
      <point x="329" y="623" type="line"/>
    </contour>
    <contour>
      <point x="262" y="79" type="curve"/>
      <point x="313" y="319" type="line"/>
      <point x="412" y="290"/>
      <point x="448" y="266"/>
      <point x="448" y="212" type="curve" smooth="yes"/>
      <point x="448" y="135"/>
      <point x="376" y="79"/>
    </contour>
  </outline>
</glyph>
<glyph name="parenleft" format="2">
  <advance width="381"/>
  <unicode hex="0028"/>
  <outline>
    <contour>
      <point x="211" y="-212" type="curve"/>
      <point x="259" y="-165" type="line"/>
      <point x="169" y="-96"/>
      <point x="120" y="13"/>
      <point x="120" y="149" type="curve" smooth="yes"/>
      <point x="120" y="366"/>
      <point x="246" y="573"/>
      <point x="429" y="657" type="curve"/>
      <point x="400" y="711" type="line"/>
      <point x="186" y="609"/>
      <point x="49" y="389"/>
      <point x="49" y="143" type="curve" smooth="yes"/>
      <point x="49" y="-8"/>
      <point x="105" y="-129"/>
    </contour>
  </outline>
</glyph>
<glyph name="parenright" format="2">
  <advance width="381"/>
  <unicode hex="0029"/>
  <outline>
    <contour>
      <point x="171" y="713" type="curve"/>
      <point x="123" y="666" type="line"/>
      <point x="213" y="597"/>
      <point x="262" y="488"/>
      <point x="262" y="352" type="curve" smooth="yes"/>
      <point x="262" y="135"/>
      <point x="136" y="-72"/>
      <point x="-47" y="-156" type="curve"/>
      <point x="-18" y="-210" type="line"/>
      <point x="196" y="-108"/>
      <point x="333" y="112"/>
      <point x="333" y="358" type="curve" smooth="yes"/>
      <point x="333" y="509"/>
      <point x="277" y="630"/>
    </contour>
  </outline>
</glyph>
<glyph name="slash" format="2">
  <advance width="451"/>
  <unicode hex="002F"/>
  <outline>
    <contour>
      <point x="-164" y="-204" type="line"/>
      <point x="-88" y="-204" type="line"/>
      <point x="518" y="700" type="line"/>
      <point x="441" y="700" type="line"/>
    </contour>
  </outline>
</glyph>
<glyph name="zero" format="2">
  <advance width="655"/>
  <unicode hex="0030"/>
  <outline>
    <contour>
      <point x="302" y="-11" type="curve" smooth="yes"/>
      <point x="483" y="-11"/>
      <point x="638" y="195"/>
      <point x="638" y="437" type="curve" smooth="yes"/>
      <point x="638" y="602"/>
      <point x="541" y="711"/>
      <point x="394" y="711" type="curve" smooth="yes"/>
      <point x="213" y="711"/>
      <point x="59" y="505"/>
      <point x="59" y="263" type="curve" smooth="yes"/>
      <point x="59" y="98"/>
      <point x="155" y="-11"/>
    </contour>
    <contour>
      <point x="311" y="54" type="curve" smooth="yes"/>
      <point x="199" y="54"/>
      <point x="130" y="133"/>
      <point x="130" y="262" type="curve" smooth="yes"/>
      <point x="130" y="471"/>
      <point x="248" y="647"/>
      <point x="386" y="647" type="curve" smooth="yes"/>
      <point x="498" y="647"/>
      <point x="566" y="567"/>
      <point x="566" y="438" type="curve" smooth="yes"/>
      <point x="566" y="230"/>
      <point x="449" y="54"/>
    </contour>
  </outline>
</glyph>
<glyph name="nine" format="2">
  <advance width="605"/>
  <unicode hex="0039"/>
  <outline>
    <contour>
      <point x="338" y="711" type="curve" smooth="yes"/>
      <point x="204" y="711"/>
      <point x="87" y="614"/>
      <point x="87" y="465" type="curve" smooth="yes"/>
      <point x="87" y="350"/>
      <point x="174" y="261"/>
      <point x="304" y="261" type="curve" smooth="yes"/>
      <point x="380" y="261"/>
      <point x="450" y="296"/>
      <point x="506" y="358" type="curve"/>
      <point x="485" y="173"/>
      <point x="371" y="54"/>
      <point x="235" y="54" type="curve" smooth="yes"/>
      <point x="186" y="54"/>
      <point x="139" y="72"/>
      <point x="89" y="112" type="curve"/>
      <point x="49" y="53" type="line"/>
      <point x="103" y="12"/>
      <point x="160" y="-11"/>
      <point x="236" y="-11" type="curve" smooth="yes"/>
      <point x="423" y="-11"/>
      <point x="580" y="157"/>
      <point x="580" y="425" type="curve" smooth="yes"/>
      <point x="580" y="607"/>
      <point x="466" y="711"/>
    </contour>
    <contour>
      <point x="329" y="647" type="curve" smooth="yes"/>
      <point x="432" y="647"/>
      <point x="508" y="564"/>
      <point x="509" y="412" type="curve"/>
      <point x="457" y="354"/>
      <point x="387" y="320"/>
      <point x="317" y="320" type="curve" smooth="yes"/>
      <point x="219" y="320"/>
      <point x="159" y="379"/>
      <point x="159" y="466" type="curve" smooth="yes"/>
      <point x="159" y="570"/>
      <point x="233" y="647"/>
    </contour>
  </outline>
</glyph>
<glyph name="B" format="2">
  <advance width="644"/>
  <unicode hex="0042"/>
  <outline>
    <contour>
      <point x="22" y="0" type="line"/>
      <point x="331" y="0" type="line" smooth="yes"/>
      <point x="482" y="0"/>
      <point x="590" y="91"/>
      <point x="590" y="219" type="curve" smooth="yes"/>
      <point x="590" y="284"/>
      <point x="552" y="334"/>
      <point x="488" y="359" type="curve"/>
      <point x="572" y="389"/>
      <point x="626" y="457"/>
      <point x="626" y="544" type="curve" smooth="yes"/>
      <point x="626" y="641"/>
      <point x="552" y="700"/>
      <point x="431" y="700" type="curve" smooth="yes"/>
      <point x="171" y="700" type="line"/>
    </contour>
    <contour>
      <point x="181" y="395" type="line"/>
      <point x="232" y="633" type="line"/>
      <point x="420" y="633" type="line" smooth="yes"/>
      <point x="500" y="633"/>
      <point x="550" y="595"/>
      <point x="550" y="532" type="curve" smooth="yes"/>
      <point x="550" y="451"/>
      <point x="483" y="395"/>
      <point x="386" y="395" type="curve" smooth="yes"/>
    </contour>
    <contour>
      <point x="111" y="67" type="line"/>
      <point x="167" y="331" type="line"/>
      <point x="369" y="331" type="line" smooth="yes"/>
      <point x="459" y="331"/>
      <point x="514" y="288"/>
      <point x="514" y="218" type="curve" smooth="yes"/>
      <point x="514" y="129"/>
      <point x="440" y="67"/>
      <point x="332" y="67" type="curve" smooth="yes"/>
    </contour>
  </outline>
</glyph>
<glyph name="D" format="2">
  <advance width="706"/>
  <unicode hex="0044"/>
  <anchor x="441" y="700" name="top"/>
  <outline>
    <contour>
      <point x="22" y="0" type="line"/>
      <point x="278" y="0" type="line" smooth="yes"/>
      <point x="503" y="0"/>
      <point x="686" y="175"/>
      <point x="686" y="391" type="curve" smooth="yes"/>
      <point x="686" y="576"/>
      <point x="559" y="700"/>
      <point x="369" y="700" type="curve" smooth="yes"/>
      <point x="171" y="700" type="line"/>
    </contour>
    <contour>
      <point x="112" y="70" type="line"/>
      <point x="231" y="630" type="line"/>
      <point x="365" y="630" type="line" smooth="yes"/>
      <point x="511" y="630"/>
      <point x="609" y="533"/>
      <point x="609" y="389" type="curve" smooth="yes"/>
      <point x="609" y="212"/>
      <point x="466" y="70"/>
      <point x="288" y="70" type="curve" smooth="yes"/>
    </contour>
  </outline>
</glyph>
<glyph name="G" format="2">
  <advance width="774"/>
  <unicode hex="0047"/>
  <anchor x="451" y="700" name="top"/>
  <anchor x="393" y="0" name="bottom"/>
  <outline>
    <contour>
      <point x="389" y="-11" type="curve" smooth="yes"/>
      <point x="566" y="-11"/>
      <point x="715" y="125"/>
      <point x="745" y="314" type="curve" smooth="yes"/>
      <point x="754" y="366" type="line"/>
      <point x="431" y="366" type="line"/>
      <point x="420" y="298" type="line"/>
      <point x="666" y="298" type="line"/>
      <point x="639" y="158"/>
      <point x="528" y="60"/>
      <point x="394" y="60" type="curve" smooth="yes"/>
      <point x="247" y="60"/>
      <point x="137" y="172"/>
      <point x="137" y="322" type="curve" smooth="yes"/>
      <point x="137" y="498"/>
      <point x="272" y="639"/>
      <point x="438" y="639" type="curve" smooth="yes"/>
      <point x="529" y="639"/>
      <point x="614" y="597"/>
      <point x="662" y="528" type="curve"/>
      <point x="721" y="578" type="line"/>
      <point x="655" y="664"/>
      <point x="559" y="710"/>
      <point x="443" y="710" type="curve" smooth="yes"/>
      <point x="236" y="710"/>
      <point x="61" y="532"/>
      <point x="61" y="320" type="curve" smooth="yes"/>
      <point x="61" y="133"/>
      <point x="203" y="-11"/>
    </contour>
  </outline>
</glyph>
<glyph name="I" format="2">
  <advance width="227"/>
  <unicode hex="0049"/>
  <anchor x="209" y="700" name="top"/>
  <anchor x="97" y="0" name="bottom"/>
  <outline>
    <contour>
      <point x="22" y="0" type="line"/>
      <point x="97" y="0" type="line"/>
      <point x="246" y="700" type="line"/>
      <point x="171" y="700" type="line"/>
    </contour>
  </outline>
</glyph>
<glyph name="J" format="2">
  <advance width="588"/>
  <unicode hex="004A"/>
  <anchor x="584" y="700" name="top"/>
  <outline>
    <contour>
      <point x="240" y="-11" type="curve" smooth="yes"/>
      <point x="387" y="-11"/>
      <point x="491" y="86"/>
      <point x="528" y="258" type="curve" smooth="yes"/>
      <point x="622" y="700" type="line"/>
      <point x="546" y="700" type="line"/>
      <point x="453" y="264" type="line" smooth="yes"/>
      <point x="426" y="135"/>
      <point x="347" y="60"/>
      <point x="240" y="60" type="curve" smooth="yes"/>
      <point x="153" y="60"/>
      <point x="99" y="105"/>
      <point x="78" y="197" type="curve"/>
      <point x="10" y="171" type="line"/>
      <point x="35" y="56"/>
      <point x="120" y="-11"/>
    </contour>
  </outline>
</glyph>
<glyph name="O" format="2">
  <advance width="794"/>
  <unicode hex="004F"/>
  <anchor x="447" y="700" name="top"/>
  <outline>
    <contour>
      <point x="391" y="-11" type="curve" smooth="yes"/>
      <point x="599" y="-11"/>
      <point x="771" y="167"/>
      <point x="771" y="380" type="curve" smooth="yes"/>
      <point x="771" y="568"/>
      <point x="629" y="711"/>
      <point x="442" y="711" type="curve" smooth="yes"/>
      <point x="234" y="711"/>
      <point x="62" y="533"/>
      <point x="62" y="320" type="curve" smooth="yes"/>
      <point x="62" y="132"/>
      <point x="204" y="-11"/>
    </contour>
    <contour>
      <point x="396" y="60" type="curve" smooth="yes"/>
      <point x="248" y="60"/>
      <point x="138" y="174"/>
      <point x="138" y="324" type="curve" smooth="yes"/>
      <point x="138" y="497"/>
      <point x="273" y="640"/>
      <point x="437" y="640" type="curve" smooth="yes"/>
      <point x="585" y="640"/>
      <point x="695" y="526"/>
      <point x="695" y="376" type="curve" smooth="yes"/>
      <point x="695" y="203"/>
      <point x="560" y="60"/>
    </contour>
  </outline>
</glyph>
<glyph name="P" format="2">
  <advance width="634"/>
  <unicode hex="0050"/>
  <outline>
    <contour>
      <point x="22" y="0" type="line"/>
      <point x="97" y="0" type="line"/>
      <point x="160" y="295" type="line"/>
      <point x="400" y="295" type="line" smooth="yes"/>
      <point x="543" y="295"/>
      <point x="648" y="391"/>
      <point x="648" y="525" type="curve" smooth="yes"/>
      <point x="648" y="632"/>
      <point x="571" y="700"/>
      <point x="448" y="700" type="curve" smooth="yes"/>
      <point x="171" y="700" type="line"/>
    </contour>
    <contour>
      <point x="174" y="362" type="line"/>
      <point x="231" y="631" type="line"/>
      <point x="437" y="631" type="line" smooth="yes"/>
      <point x="522" y="631"/>
      <point x="573" y="589"/>
      <point x="573" y="519" type="curve" smooth="yes"/>
      <point x="573" y="427"/>
      <point x="501" y="362"/>
      <point x="399" y="362" type="curve" smooth="yes"/>
    </contour>
  </outline>
</glyph>
<glyph name="T" format="2">
  <advance width="605"/>
  <unicode hex="0054"/>
  <anchor x="398" y="700" name="top"/>
  <anchor x="249" y="0" name="bottom"/>
  <outline>
    <contour>
      <point x="211" y="0" type="line"/>
      <point x="286" y="0" type="line"/>
      <point x="420" y="631" type="line"/>
      <point x="668" y="631" type="line"/>
      <point x="683" y="700" type="line"/>
      <point x="112" y="700" type="line"/>
      <point x="97" y="631" type="line"/>
      <point x="345" y="631" type="line"/>
    </contour>
  </outline>
</glyph>
<glyph name="X" format="2">
  <advance width="625"/>
  <unicode hex="0058"/>
  <outline>
    <contour>
      <point x="-52" y="0" type="line"/>
      <point x="41" y="0" type="line"/>
      <point x="325" y="304" type="line"/>
      <point x="482" y="0" type="line"/>
      <point x="566" y="0" type="line"/>
      <point x="380" y="360" type="line"/>
      <point x="701" y="700" type="line"/>
      <point x="608" y="700" type="line"/>
      <point x="347" y="422" type="line"/>
      <point x="204" y="700" type="line"/>
      <point x="120" y="700" type="line"/>
      <point x="292" y="366" type="line"/>
    </contour>
  </outline>
</glyph>
<glyph name="Y" format="2">
  <advance width="627"/>
  <unicode hex="0059"/>
  <anchor x="403" y="700" name="top"/>
  <outline>
    <contour>
      <point x="221" y="0" type="line"/>
      <point x="297" y="0" type="line"/>
      <point x="357" y="282" type="line"/>
      <point x="719" y="700" type="line"/>
      <point x="628" y="700" type="line"/>
      <point x="331" y="354" type="line"/>
      <point x="178" y="700" type="line"/>
      <point x="98" y="700" type="line"/>
      <point x="281" y="286" type="line"/>
    </contour>
  </outline>
</glyph>
<glyph name="Z" format="2">
  <advance width="592"/>
  <unicode hex="005A"/>
  <anchor x="368" y="700" name="top"/>
  <outline>
    <contour>
      <point x="-30" y="0" type="line"/>
      <point x="513" y="0" type="line"/>
      <point x="528" y="68" type="line"/>
      <point x="88" y="68" type="line"/>
      <point x="641" y="645" type="line"/>
      <point x="654" y="700" type="line"/>
      <point x="122" y="700" type="line"/>
      <point x="108" y="632" type="line"/>
      <point x="534" y="632" type="line"/>
      <point x="-18" y="55" type="line"/>
    </contour>
  </outline>
</glyph>
<glyph name="bracketleft" format="2">
  <advance width="341"/>
  <unicode hex="005B"/>
  <outline>
    <contour>
      <point x="-42" y="-207" type="line"/>
      <point x="205" y="-207" type="line"/>
      <point x="218" y="-147" type="line"/>
      <point x="41" y="-147" type="line"/>
      <point x="208" y="640" type="line"/>
      <point x="385" y="640" type="line"/>
      <point x="398" y="700" type="line"/>
      <point x="151" y="700" type="line"/>
    </contour>
  </outline>
</glyph>
<glyph name="bracketright" format="2">
  <advance width="341"/>
  <unicode hex="005D"/>
  <outline>
    <contour>
      <point x="381" y="700" type="line"/>
      <point x="134" y="700" type="line"/>
      <point x="121" y="640" type="line"/>
      <point x="298" y="640" type="line"/>
      <point x="131" y="-147" type="line"/>
      <point x="-46" y="-147" type="line"/>
      <point x="-59" y="-207" type="line"/>
      <point x="188" y="-207" type="line"/>
    </contour>
  </outline>
</glyph>
<glyph name="underscore" format="2">
  <advance width="472"/>
  <unicode hex="005F"/>
  <outline>
    <contour>
      <point x="-84" y="-137" type="line"/>
      <point x="390" y="-137" type="line"/>
      <point x="402" y="-80" type="line"/>
      <point x="-72" y="-80" type="line"/>
    </contour>
  </outline>
</glyph>
<glyph name="grave" format="2">
  <advance width="600"/>
  <unicode hex="0060"/>
  <anchor x="355" y="501" name="_top"/>
  <outline>
    <contour>
      <point x="354" y="600" type="line"/>
      <point x="417" y="600" type="line"/>
      <point x="326" y="716" type="line"/>
      <point x="233" y="716" type="line"/>
    </contour>
  </outline>
</glyph>
<glyph name="b" format="2">
  <advance width="578"/>
  <unicode hex="0062"/>
  <outline>
    <contour>
      <point x="264" y="-9" type="curve" smooth="yes"/>
      <point x="416" y="-9"/>
      <point x="539" y="120"/>
      <point x="539" y="278" type="curve" smooth="yes"/>
      <point x="539" y="410"/>
      <point x="445" y="508"/>
      <point x="318" y="508" type="curve" smooth="yes"/>
      <point x="269" y="508"/>
      <point x="222" y="494"/>
      <point x="181" y="466" type="curve"/>
      <point x="234" y="717" type="line"/>
      <point x="159" y="700" type="line"/>
      <point x="10" y="0" type="line"/>
      <point x="81" y="0" type="line"/>
      <point x="95" y="64" type="line"/>
      <point x="136" y="17"/>
      <point x="196" y="-9"/>
    </contour>
    <contour>
      <point x="262" y="57" type="curve" smooth="yes"/>
      <point x="196" y="57"/>
      <point x="138" y="89"/>
      <point x="111" y="138" type="curve"/>
      <point x="164" y="390" type="line"/>
      <point x="202" y="424"/>
      <point x="251" y="443"/>
      <point x="303" y="443" type="curve" smooth="yes"/>
      <point x="399" y="443"/>
      <point x="468" y="372"/>
      <point x="468" y="272" type="curve" smooth="yes"/>
      <point x="468" y="153"/>
      <point x="377" y="57"/>
    </contour>
  </outline>
</glyph>
<glyph name="e" format="2">
  <advance width="552"/>
  <unicode hex="0065"/>
  <anchor x="304" y="501" name="top"/>
  <anchor x="359" y="0" name="bottom"/>
  <outline>
    <contour>
      <point x="280" y="-9" type="curve" smooth="yes"/>
      <point x="345" y="-9"/>
      <point x="401" y="7"/>
      <point x="456" y="45" type="curve"/>
      <point x="418" y="96" type="line"/>
      <point x="381" y="70"/>
      <point x="332" y="55"/>
      <point x="283" y="55" type="curve" smooth="yes"/>
      <point x="186" y="55"/>
      <point x="112" y="128"/>
      <point x="110" y="228" type="curve"/>
      <point x="511" y="228" type="line"/>
      <point x="513" y="244"/>
      <point x="514" y="259"/>
      <point x="514" y="273" type="curve" smooth="yes"/>
      <point x="514" y="408"/>
      <point x="423" y="509"/>
      <point x="301" y="509" type="curve" smooth="yes"/>
      <point x="157" y="509"/>
      <point x="38" y="381"/>
      <point x="38" y="226" type="curve" smooth="yes"/>
      <point x="38" y="89"/>
      <point x="139" y="-9"/>
    </contour>
    <contour>
      <point x="117" y="287" type="line"/>
      <point x="138" y="377"/>
      <point x="210" y="444"/>
      <point x="294" y="444" type="curve" smooth="yes"/>
      <point x="377" y="444"/>
      <point x="439" y="378"/>
      <point x="445" y="287" type="curve"/>
    </contour>
  </outline>
</glyph>
<glyph name="g" format="2">
  <advance width="580"/>
  <unicode hex="0067"/>
  <note>
Version created Sun Jan 13 16:53:00 2019
</note>
  <anchor x="322" y="501" name="top"/>
  <outline>
    <contour>
      <point x="245" y="-210" type="curve" smooth="yes"/>
      <point x="358" y="-210"/>
      <point x="433" y="-148"/>
      <point x="457" y="-33" type="curve" smooth="yes"/>
      <point x="568" y="501" type="line"/>
      <point x="496" y="501" type="line"/>
      <point x="482" y="437" type="line"/>
      <point x="442" y="483"/>
      <point x="381" y="508"/>
      <point x="314" y="508" type="curve" smooth="yes"/>
      <point x="162" y="508"/>
      <point x="39" y="380"/>
      <point x="39" y="222" type="curve" smooth="yes"/>
      <point x="39" y="90"/>
      <point x="132" y="-7"/>
      <point x="259" y="-7" type="curve" smooth="yes"/>
      <point x="310" y="-7"/>
      <point x="356" y="8"/>
      <point x="398" y="36" type="curve"/>
      <point x="385" y="-26" type="line" smooth="yes"/>
      <point x="368" y="-105"/>
      <point x="319" y="-145"/>
      <point x="242" y="-145" type="curve" smooth="yes"/>
      <point x="184" y="-145"/>
      <point x="128" y="-124"/>
      <point x="70" y="-82" type="curve"/>
      <point x="32" y="-137" type="line"/>
      <point x="89" y="-182"/>
      <point x="172" y="-210"/>
    </contour>
    <contour>
      <point x="275" y="57" type="curve" smooth="yes"/>
      <point x="178" y="57"/>
      <point x="110" y="128"/>
      <point x="110" y="228" type="curve" smooth="yes"/>
      <point x="110" y="347"/>
      <point x="201" y="443"/>
      <point x="316" y="443" type="curve" smooth="yes"/>
      <point x="381" y="443"/>
      <point x="440" y="412"/>
      <point x="467" y="363" type="curve"/>
      <point x="414" y="112" type="line"/>
      <point x="376" y="77"/>
      <point x="327" y="57"/>
    </contour>
  </outline>
</glyph>
<glyph name="i" format="2">
  <advance width="198"/>
  <unicode hex="0069"/>
  <anchor x="82" y="0" name="bottom"/>
  <outline>
    <contour>
      <point x="10" y="0" type="line"/>
      <point x="82" y="0" type="line"/>
      <point x="188" y="501" type="line"/>
      <point x="116" y="501" type="line"/>
    </contour>
    <contour>
      <point x="177" y="597" type="curve" smooth="yes"/>
      <point x="206" y="597"/>
      <point x="232" y="623"/>
      <point x="232" y="653" type="curve" smooth="yes"/>
      <point x="232" y="678"/>
      <point x="213" y="697"/>
      <point x="188" y="697" type="curve" smooth="yes"/>
      <point x="159" y="697"/>
      <point x="133" y="671"/>
      <point x="133" y="642" type="curve" smooth="yes"/>
      <point x="133" y="617"/>
      <point x="152" y="597"/>
    </contour>
  </outline>
</glyph>
<glyph name="k" format="2">
  <advance width="485"/>
  <unicode hex="006B"/>
  <anchor x="198" y="0" name="bottom"/>
  <outline>
    <contour>
      <point x="10" y="0" type="line"/>
      <point x="82" y="0" type="line"/>
      <point x="133" y="241" type="line"/>
      <point x="348" y="0" type="line"/>
      <point x="438" y="0" type="line"/>
      <point x="207" y="257" type="line"/>
      <point x="539" y="501" type="line"/>
      <point x="440" y="501" type="line"/>
      <point x="142" y="282" type="line"/>
      <point x="234" y="717" type="line"/>
      <point x="159" y="700" type="line"/>
    </contour>
  </outline>
</glyph>
<glyph name="l" format="2">
  <advance width="198"/>
  <unicode hex="006C"/>
  <anchor x="194" y="700" name="top"/>
  <anchor x="45" y="0" name="bottom"/>
  <outline>
    <contour>
      <point x="10" y="0" type="line"/>
      <point x="82" y="0" type="line"/>
      <point x="234" y="717" type="line"/>
      <point x="159" y="700" type="line"/>
    </contour>
  </outline>
</glyph>
<glyph name="m" format="2">
  <advance width="842"/>
  <unicode hex="006D"/>
  <outline>
    <contour>
      <point x="10" y="0" type="line"/>
      <point x="82" y="0" type="line"/>
      <point x="161" y="374" type="line"/>
      <point x="201" y="421"/>
      <point x="248" y="446"/>
      <point x="298" y="446" type="curve" smooth="yes"/>
      <point x="376" y="446"/>
      <point x="416" y="385"/>
      <point x="396" y="297" type="curve" smooth="yes"/>
      <point x="333" y="0" type="line"/>
      <point x="405" y="0" type="line"/>
      <point x="471" y="309" type="line" smooth="yes"/>
      <point x="475" y="327"/>
      <point x="476" y="345"/>
      <point x="476" y="361" type="curve"/>
      <point x="522" y="418"/>
      <point x="570" y="446"/>
      <point x="623" y="446" type="curve" smooth="yes"/>
      <point x="699" y="446"/>
      <point x="739" y="387"/>
      <point x="722" y="304" type="curve" smooth="yes"/>
      <point x="657" y="0" type="line"/>
      <point x="729" y="0" type="line"/>
      <point x="794" y="309" type="line" smooth="yes"/>
      <point x="819" y="425"/>
      <point x="757" y="510"/>
      <point x="647" y="510" type="curve" smooth="yes"/>
      <point x="580" y="510"/>
      <point x="521" y="479"/>
      <point x="466" y="415" type="curve"/>
      <point x="445" y="473"/>
      <point x="394" y="510"/>
      <point x="323" y="510" type="curve" smooth="yes"/>
      <point x="269" y="510"/>
      <point x="220" y="490"/>
      <point x="177" y="449" type="curve"/>
      <point x="188" y="501" type="line"/>
      <point x="116" y="501" type="line"/>
    </contour>
  </outline>
</glyph>
<glyph name="o" format="2">
  <advance width="581"/>
  <unicode hex="006F"/>
  <anchor x="314" y="501" name="top"/>
  <outline>
    <contour>
      <point x="272" y="-10" type="curve" smooth="yes"/>
      <point x="418" y="-10"/>
      <point x="541" y="119"/>
      <point x="541" y="272" type="curve" smooth="yes"/>
      <point x="541" y="409"/>
      <point x="441" y="511"/>
      <point x="308" y="511" type="curve" smooth="yes"/>
      <point x="162" y="511"/>
      <point x="39" y="382"/>
      <point x="39" y="229" type="curve" smooth="yes"/>
      <point x="39" y="92"/>
      <point x="138" y="-10"/>
    </contour>
    <contour>
      <point x="275" y="56" type="curve" smooth="yes"/>
      <point x="180" y="56"/>
      <point x="110" y="132"/>
      <point x="110" y="233" type="curve" smooth="yes"/>
      <point x="110" y="348"/>
      <point x="199" y="445"/>
      <point x="305" y="445" type="curve" smooth="yes"/>
      <point x="399" y="445"/>
      <point x="470" y="369"/>
      <point x="470" y="268" type="curve" smooth="yes"/>
      <point x="470" y="153"/>
      <point x="381" y="56"/>
    </contour>
  </outline>
</glyph>
<glyph name="p" format="2">
  <advance width="578"/>
  <unicode hex="0070"/>
  <outline>
    <contour>
      <point x="-34" y="-204" type="line"/>
      <point x="38" y="-204" type="line"/>
      <point x="95" y="64" type="line"/>
      <point x="136" y="17"/>
      <point x="196" y="-9"/>
      <point x="264" y="-9" type="curve" smooth="yes"/>
      <point x="416" y="-9"/>
      <point x="539" y="120"/>
      <point x="539" y="278" type="curve" smooth="yes"/>
      <point x="539" y="410"/>
      <point x="445" y="508"/>
      <point x="318" y="508" type="curve" smooth="yes"/>
      <point x="269" y="508"/>
      <point x="222" y="493"/>
      <point x="180" y="465" type="curve"/>
      <point x="188" y="501" type="line"/>
      <point x="116" y="501" type="line"/>
    </contour>
    <contour>
      <point x="262" y="57" type="curve" smooth="yes"/>
      <point x="196" y="57"/>
      <point x="138" y="89"/>
      <point x="111" y="138" type="curve"/>
      <point x="165" y="390" type="line"/>
      <point x="202" y="424"/>
      <point x="251" y="443"/>
      <point x="303" y="443" type="curve" smooth="yes"/>
      <point x="399" y="443"/>
      <point x="468" y="372"/>
      <point x="468" y="272" type="curve" smooth="yes"/>
      <point x="468" y="153"/>
      <point x="377" y="57"/>
    </contour>
  </outline>
</glyph>
<glyph name="q" format="2">
  <advance width="579"/>
  <unicode hex="0071"/>
  <outline>
    <contour>
      <point x="347" y="-204" type="line"/>
      <point x="419" y="-204" type="line"/>
      <point x="568" y="501" type="line"/>
      <point x="497" y="501" type="line"/>
      <point x="483" y="436" type="line"/>
      <point x="442" y="482"/>
      <point x="382" y="508"/>
      <point x="314" y="508" type="curve" smooth="yes"/>
      <point x="161" y="508"/>
      <point x="38" y="379"/>
      <point x="38" y="222" type="curve" smooth="yes"/>
      <point x="38" y="90"/>
      <point x="132" y="-8"/>
      <point x="259" y="-8" type="curve" smooth="yes"/>
      <point x="309" y="-8"/>
      <point x="356" y="7"/>
      <point x="398" y="35" type="curve"/>
    </contour>
    <contour>
      <point x="275" y="56" type="curve" smooth="yes"/>
      <point x="178" y="56"/>
      <point x="109" y="128"/>
      <point x="109" y="228" type="curve" smooth="yes"/>
      <point x="109" y="347"/>
      <point x="201" y="443"/>
      <point x="316" y="443" type="curve" smooth="yes"/>
      <point x="381" y="443"/>
      <point x="440" y="411"/>
      <point x="467" y="363" type="curve"/>
      <point x="414" y="111" type="line"/>
      <point x="376" y="76"/>
      <point x="327" y="56"/>
    </contour>
  </outline>
</glyph>
<glyph name="t" format="2">
  <advance width="357"/>
  <unicode hex="0074"/>
  <anchor x="195" y="0" name="bottom"/>
  <outline>
    <contour>
      <point x="215" y="-9" type="curve" smooth="yes"/>
      <point x="239" y="-9"/>
      <point x="266" y="-6"/>
      <point x="288" y="0" type="curve"/>
      <point x="301" y="65" type="line"/>
      <point x="277" y="58"/>
      <point x="261" y="55"/>
      <point x="243" y="55" type="curve" smooth="yes"/>
      <point x="177" y="55"/>
      <point x="157" y="77"/>
      <point x="169" y="135" type="curve" smooth="yes"/>
      <point x="234" y="438" type="line"/>
      <point x="380" y="438" type="line"/>
      <point x="394" y="501" type="line"/>
      <point x="248" y="501" type="line"/>
      <point x="279" y="647" type="line"/>
      <point x="202" y="628" type="line"/>
      <point x="175" y="501" type="line"/>
      <point x="70" y="501" type="line"/>
      <point x="56" y="438" type="line"/>
      <point x="162" y="438" type="line"/>
      <point x="95" y="119" type="line" smooth="yes"/>
      <point x="77" y="37"/>
      <point x="121" y="-9"/>
    </contour>
  </outline>
</glyph>
<glyph name="u" format="2">
  <advance width="538"/>
  <unicode hex="0075"/>
  <anchor x="312" y="501" name="top"/>
  <anchor x="421" y="0" name="bottom"/>
  <outline>
    <contour>
      <point x="209" y="-9" type="curve" smooth="yes"/>
      <point x="265" y="-9"/>
      <point x="316" y="11"/>
      <point x="360" y="50" type="curve"/>
      <point x="349" y="0" type="line"/>
      <point x="421" y="0" type="line"/>
      <point x="528" y="501" type="line"/>
      <point x="456" y="501" type="line"/>
      <point x="376" y="127" type="line"/>
      <point x="338" y="80"/>
      <point x="288" y="55"/>
      <point x="232" y="55" type="curve" smooth="yes"/>
      <point x="146" y="55"/>
      <point x="101" y="116"/>
      <point x="121" y="208" type="curve" smooth="yes"/>
      <point x="183" y="501" type="line"/>
      <point x="111" y="501" type="line"/>
      <point x="47" y="200" type="line" smooth="yes"/>
      <point x="22" y="80"/>
      <point x="90" y="-9"/>
    </contour>
  </outline>
</glyph>
<glyph name="v" format="2">
  <advance width="503"/>
  <unicode hex="0076"/>
  <outline>
    <contour>
      <point x="163" y="0" type="line"/>
      <point x="231" y="0" type="line"/>
      <point x="551" y="501" type="line"/>
      <point x="470" y="501" type="line"/>
      <point x="216" y="96" type="line"/>
      <point x="135" y="501" type="line"/>
      <point x="58" y="501" type="line"/>
    </contour>
  </outline>
</glyph>
<glyph name="w" format="2">
  <advance width="689"/>
  <unicode hex="0077"/>
  <anchor x="396" y="501" name="top"/>
  <outline>
    <contour>
      <point x="100" y="0" type="line"/>
      <point x="169" y="0" type="line"/>
      <point x="377" y="401" type="line"/>
      <point x="413" y="0" type="line"/>
      <point x="484" y="0" type="line"/>
      <point x="728" y="501" type="line"/>
      <point x="657" y="501" type="line"/>
      <point x="466" y="101" type="line"/>
      <point x="429" y="501" type="line"/>
      <point x="364" y="501" type="line"/>
      <point x="157" y="101" type="line"/>
      <point x="136" y="501" type="line"/>
      <point x="67" y="501" type="line"/>
    </contour>
  </outline>
</glyph>
<glyph name="asciitilde" format="2">
  <advance width="600"/>
  <unicode hex="007E"/>
  <outline>
    <contour>
      <point x="140" y="312" type="line"/>
      <point x="158" y="367"/>
      <point x="185" y="395"/>
      <point x="219" y="395" type="curve" smooth="yes"/>
      <point x="236" y="395"/>
      <point x="248" y="391"/>
      <point x="278" y="372" type="curve" smooth="yes"/>
      <point x="341" y="330" type="line" smooth="yes"/>
      <point x="386" y="302"/>
      <point x="408" y="293"/>
      <point x="437" y="293" type="curve" smooth="yes"/>
      <point x="494" y="293"/>
      <point x="542" y="340"/>
      <point x="570" y="426" type="curve"/>
      <point x="517" y="439" type="line"/>
      <point x="498" y="383"/>
      <point x="471" y="355"/>
      <point x="436" y="355" type="curve" smooth="yes"/>
      <point x="420" y="355"/>
      <point x="408" y="360"/>
      <point x="378" y="379" type="curve" smooth="yes"/>
      <point x="315" y="421" type="line" smooth="yes"/>
      <point x="271" y="449"/>
      <point x="247" y="457"/>
      <point x="220" y="457" type="curve" smooth="yes"/>
      <point x="163" y="457"/>
      <point x="114" y="410"/>
      <point x="86" y="325" type="curve"/>
    </contour>
  </outline>
</glyph>
<glyph name="section" format="2">
  <advance width="554"/>
  <unicode hex="00A7"/>
  <outline>
    <contour>
      <point x="240" y="-51" type="curve" smooth="yes"/>
      <point x="340" y="-51"/>
      <point x="410" y="9"/>
      <point x="410" y="95" type="curve" smooth="yes"/>
      <point x="410" y="127"/>
      <point x="398" y="155"/>
      <point x="373" y="178" type="curve"/>
      <point x="460" y="194"/>
      <point x="515" y="250"/>
      <point x="515" y="326" type="curve" smooth="yes"/>
      <point x="515" y="379"/>
      <point x="484" y="415"/>
      <point x="406" y="453" type="curve" smooth="yes"/>
      <point x="305" y="500" type="line" smooth="yes"/>
      <point x="266" y="519"/>
      <point x="247" y="542"/>
      <point x="247" y="573" type="curve" smooth="yes"/>
      <point x="247" y="622"/>
      <point x="285" y="654"/>
      <point x="345" y="654" type="curve" smooth="yes"/>
      <point x="394" y="654"/>
      <point x="446" y="634"/>
      <point x="503" y="593" type="curve"/>
      <point x="542" y="642" type="line"/>
      <point x="486" y="685"/>
      <point x="416" y="710"/>
      <point x="351" y="710" type="curve" smooth="yes"/>
      <point x="250" y="710"/>
      <point x="181" y="651"/>
      <point x="181" y="565" type="curve" smooth="yes"/>
      <point x="181" y="531"/>
      <point x="193" y="503"/>
      <point x="219" y="479" type="curve"/>
      <point x="131" y="464"/>
      <point x="76" y="409"/>
      <point x="76" y="333" type="curve" smooth="yes"/>
      <point x="76" y="280"/>
      <point x="106" y="244"/>
      <point x="185" y="206" type="curve" smooth="yes"/>
      <point x="285" y="159" type="line" smooth="yes"/>
      <point x="324" y="140"/>
      <point x="343" y="117"/>
      <point x="343" y="86" type="curve" smooth="yes"/>
      <point x="343" y="37"/>
      <point x="305" y="5"/>
      <point x="245" y="5" type="curve" smooth="yes"/>
      <point x="196" y="5"/>
      <point x="144" y="25"/>
      <point x="88" y="66" type="curve"/>
      <point x="48" y="17" type="line"/>
      <point x="104" y="-26"/>
      <point x="174" y="-51"/>
    </contour>
    <contour>
      <point x="317" y="215" type="curve"/>
      <point x="213" y="264" type="line" smooth="yes"/>
      <point x="163" y="287"/>
      <point x="140" y="313"/>
      <point x="140" y="348" type="curve" smooth="yes"/>
      <point x="140" y="402"/>
      <point x="197" y="440"/>
      <point x="277" y="442" type="curve"/>
      <point x="377" y="396" type="line" smooth="yes"/>
      <point x="427" y="372"/>
      <point x="450" y="346"/>
      <point x="450" y="312" type="curve" smooth="yes"/>
      <point x="450" y="257"/>
      <point x="394" y="218"/>
    </contour>
  </outline>
</glyph>
<glyph name="copyright" format="2">
  <advance width="792"/>
  <unicode hex="00A9"/>
  <outline>
    <contour>
      <point x="388" y="-9" type="curve" smooth="yes"/>
      <point x="597" y="-9"/>
      <point x="773" y="170"/>
      <point x="773" y="386" type="curve" smooth="yes"/>
      <point x="773" y="570"/>
      <point x="635" y="706"/>
      <point x="447" y="706" type="curve" smooth="yes"/>
      <point x="237" y="706"/>
      <point x="61" y="527"/>
      <point x="61" y="311" type="curve" smooth="yes"/>
      <point x="61" y="126"/>
      <point x="199" y="-9"/>
    </contour>
    <contour>
      <point x="388" y="33" type="curve" smooth="yes"/>
      <point x="228" y="33"/>
      <point x="108" y="153"/>
      <point x="108" y="315" type="curve" smooth="yes"/>
      <point x="108" y="503"/>
      <point x="262" y="663"/>
      <point x="444" y="663" type="curve" smooth="yes"/>
      <point x="607" y="663"/>
      <point x="726" y="544"/>
      <point x="726" y="381" type="curve" smooth="yes"/>
      <point x="726" y="194"/>
      <point x="572" y="33"/>
    </contour>
    <contour>
      <point x="405" y="167" type="curve" smooth="yes"/>
      <point x="450" y="167"/>
      <point x="497" y="183"/>
      <point x="533" y="212" type="curve"/>
      <point x="508" y="254" type="line"/>
      <point x="476" y="231"/>
      <point x="445" y="219"/>
      <point x="412" y="219" type="curve" smooth="yes"/>
      <point x="348" y="219"/>
      <point x="301" y="267"/>
      <point x="301" y="332" type="curve" smooth="yes"/>
      <point x="301" y="412"/>
      <point x="366" y="482"/>
      <point x="442" y="482" type="curve" smooth="yes"/>
      <point x="482" y="482"/>
      <point x="521" y="461"/>
      <point x="545" y="426" type="curve"/>
      <point x="588" y="462" type="line"/>
      <point x="559" y="506"/>
      <point x="503" y="533"/>
      <point x="445" y="533" type="curve" smooth="yes"/>
      <point x="337" y="533"/>
      <point x="245" y="438"/>
      <point x="245" y="328" type="curve" smooth="yes"/>
      <point x="245" y="235"/>
      <point x="313" y="167"/>
    </contour>
  </outline>
</glyph>
<glyph name="twosuperior" format="2">
  <advance width="286"/>
  <unicode hex="00B2"/>
  <outline>
    <contour>
      <point x="47" y="350" type="line"/>
      <point x="286" y="350" type="line"/>
      <point x="295" y="394" type="line"/>
      <point x="131" y="394" type="line"/>
      <point x="260" y="495" type="line" smooth="yes"/>
      <point x="315" y="537"/>
      <point x="336" y="571"/>
      <point x="336" y="615" type="curve" smooth="yes"/>
      <point x="336" y="667"/>
      <point x="292" y="704"/>
      <point x="228" y="704" type="curve" smooth="yes"/>
      <point x="187" y="704"/>
      <point x="145" y="689"/>
      <point x="102" y="659" type="curve"/>
      <point x="124" y="621" type="line"/>
      <point x="163" y="649"/>
      <point x="190" y="660"/>
      <point x="219" y="660" type="curve" smooth="yes"/>
      <point x="257" y="660"/>
      <point x="284" y="638"/>
      <point x="284" y="607" type="curve" smooth="yes"/>
      <point x="284" y="579"/>
      <point x="268" y="555"/>
      <point x="229" y="524" type="curve" smooth="yes"/>
      <point x="55" y="387" type="line"/>
    </contour>
  </outline>
</glyph>
<glyph name="uni00B5" format="2">
  <advance width="549"/>
  <unicode hex="00B5"/>
  <outline>
    <contour>
      <point x="-36" y="-205" type="line"/>
      <point x="37" y="-205" type="line"/>
      <point x="87" y="27" type="line"/>
      <point x="114" y="3"/>
      <point x="153" y="-10"/>
      <point x="200" y="-10" type="curve" smooth="yes"/>
      <point x="265" y="-10"/>
      <point x="323" y="13"/>
      <point x="371" y="58" type="curve"/>
      <point x="359" y="0" type="line"/>
      <point x="433" y="0" type="line"/>
      <point x="539" y="501" type="line"/>
      <point x="465" y="501" type="line"/>
      <point x="387" y="133" type="line"/>
      <point x="347" y="83"/>
      <point x="293" y="55"/>
      <point x="233" y="55" type="curve" smooth="yes"/>
      <point x="147" y="55"/>
      <point x="104" y="110"/>
      <point x="123" y="199" type="curve"/>
      <point x="187" y="501" type="line"/>
      <point x="114" y="501" type="line"/>
    </contour>
  </outline>
</glyph>
<glyph name="paragraph" format="2">
  <advance width="648"/>
  <unicode hex="00B6"/>
  <outline>
    <contour>
      <point x="263" y="0" type="line"/>
      <point x="330" y="0" type="line"/>
      <point x="391" y="289" type="line"/>
      <point x="509" y="289" type="line"/>
      <point x="447" y="0" type="line"/>
      <point x="514" y="0" type="line"/>
      <point x="663" y="700" type="line"/>
      <point x="331" y="700" type="line" smooth="yes"/>
      <point x="193" y="700"/>
      <point x="93" y="603"/>
      <point x="93" y="468" type="curve" smooth="yes"/>
      <point x="93" y="361"/>
      <point x="171" y="289"/>
      <point x="289" y="289" type="curve" smooth="yes"/>
      <point x="324" y="289" type="line"/>
    </contour>
    <contour>
      <point x="405" y="352" type="line"/>
      <point x="465" y="637" type="line"/>
      <point x="583" y="637" type="line"/>
      <point x="522" y="352" type="line"/>
    </contour>
    <contour>
      <point x="296" y="352" type="line" smooth="yes"/>
      <point x="213" y="352"/>
      <point x="162" y="399"/>
      <point x="162" y="476" type="curve" smooth="yes"/>
      <point x="162" y="571"/>
      <point x="230" y="637"/>
      <point x="326" y="637" type="curve" smooth="yes"/>
      <point x="398" y="637" type="line"/>
      <point x="338" y="352" type="line"/>
    </contour>
  </outline>
</glyph>
<glyph name="ordmasculine" format="2">
  <advance width="455"/>
  <unicode hex="00BA"/>
  <outline>
    <contour>
      <point x="270" y="317" type="curve" smooth="yes"/>
      <point x="380" y="317"/>
      <point x="474" y="414"/>
      <point x="474" y="529" type="curve" smooth="yes"/>
      <point x="474" y="633"/>
      <point x="398" y="710"/>
      <point x="297" y="710" type="curve" smooth="yes"/>
      <point x="186" y="710"/>
      <point x="92" y="613"/>
      <point x="92" y="498" type="curve" smooth="yes"/>
      <point x="92" y="394"/>
      <point x="168" y="317"/>
    </contour>
    <contour>
      <point x="273" y="372" type="curve" smooth="yes"/>
      <point x="204" y="372"/>
      <point x="152" y="427"/>
      <point x="152" y="501" type="curve" smooth="yes"/>
      <point x="152" y="585"/>
      <point x="217" y="655"/>
      <point x="293" y="655" type="curve" smooth="yes"/>
      <point x="362" y="655"/>
      <point x="414" y="600"/>
      <point x="414" y="526" type="curve" smooth="yes"/>
      <point x="414" y="443"/>
      <point x="350" y="372"/>
    </contour>
  </outline>
</glyph>
<glyph name="guillemotright" format="2">
  <advance width="598"/>
  <unicode hex="00BB"/>
  <outline>
    <contour>
      <point x="205" y="0" type="line"/>
      <point x="285" y="0" type="line"/>
      <point x="569" y="250" type="line"/>
      <point x="392" y="501" type="line"/>
      <point x="315" y="501" type="line"/>
      <point x="486" y="253" type="line"/>
    </contour>
    <contour>
      <point x="-4" y="0" type="line"/>
      <point x="76" y="0" type="line"/>
      <point x="360" y="250" type="line"/>
      <point x="183" y="501" type="line"/>
      <point x="106" y="501" type="line"/>
      <point x="277" y="253" type="line"/>
    </contour>
  </outline>
</glyph>
<glyph name="questiondown" format="2">
  <advance width="495"/>
  <unicode hex="00BF"/>
  <outline>
    <contour>
      <point x="331" y="298" type="curve"/>
      <point x="269" y="298" type="line"/>
      <point x="259" y="230"/>
      <point x="233" y="189"/>
      <point x="178" y="158" type="curve" smooth="yes"/>
      <point x="116" y="123" type="line" smooth="yes"/>
      <point x="25" y="70"/>
      <point x="-15" y="14"/>
      <point x="-15" y="-60" type="curve" smooth="yes"/>
      <point x="-15" y="-152"/>
      <point x="65" y="-214"/>
      <point x="178" y="-214" type="curve" smooth="yes"/>
      <point x="260" y="-214"/>
      <point x="342" y="-176"/>
      <point x="409" y="-109" type="curve"/>
      <point x="363" y="-68" type="line"/>
      <point x="312" y="-118"/>
      <point x="250" y="-148"/>
      <point x="188" y="-148" type="curve" smooth="yes"/>
      <point x="111" y="-148"/>
      <point x="57" y="-108"/>
      <point x="57" y="-51" type="curve" smooth="yes"/>
      <point x="57" y="-5"/>
      <point x="91" y="40"/>
      <point x="147" y="73" type="curve" smooth="yes"/>
      <point x="211" y="109" type="line" smooth="yes"/>
      <point x="284" y="150"/>
      <point x="317" y="203"/>
    </contour>
    <contour>
      <point x="337" y="503" type="curve" smooth="yes"/>
      <point x="307" y="503"/>
      <point x="280" y="476"/>
      <point x="280" y="447" type="curve" smooth="yes"/>
      <point x="280" y="421"/>
      <point x="299" y="401"/>
      <point x="325" y="401" type="curve" smooth="yes"/>
      <point x="355" y="401"/>
      <point x="381" y="428"/>
      <point x="381" y="458" type="curve" smooth="yes"/>
      <point x="381" y="483"/>
      <point x="362" y="503"/>
    </contour>
  </outline>
</glyph>
<glyph name="germandbls" format="2">
  <advance width="609"/>
  <unicode hex="00DF"/>
  <outline>
    <contour>
      <point x="396" y="-12" type="curve" smooth="yes"/>
      <point x="496" y="-12"/>
      <point x="571" y="50"/>
      <point x="571" y="132" type="curve" smooth="yes"/>
      <point x="571" y="185"/>
      <point x="543" y="219"/>
      <point x="471" y="252" type="curve" smooth="yes"/>
      <point x="401" y="284" type="line" smooth="yes"/>
      <point x="365" y="300"/>
      <point x="351" y="317"/>
      <point x="351" y="340" type="curve" smooth="yes"/>
      <point x="351" y="425"/>
      <point x="591" y="396"/>
      <point x="591" y="559" type="curve" smooth="yes"/>
      <point x="591" y="648"/>
      <point x="505" y="711"/>
      <point x="384" y="711" type="curve" smooth="yes"/>
      <point x="242" y="711"/>
      <point x="145" y="633"/>
      <point x="114" y="489" type="curve" smooth="yes"/>
      <point x="10" y="0" type="line"/>
      <point x="80" y="0" type="line"/>
      <point x="184" y="484" type="line" smooth="yes"/>
      <point x="207" y="593"/>
      <point x="277" y="649"/>
      <point x="383" y="649" type="curve" smooth="yes"/>
      <point x="460" y="649"/>
      <point x="520" y="605"/>
      <point x="520" y="550" type="curve" smooth="yes"/>
      <point x="520" y="440"/>
      <point x="281" y="463"/>
      <point x="281" y="330" type="curve" smooth="yes"/>
      <point x="281" y="287"/>
      <point x="305" y="258"/>
      <point x="361" y="233" type="curve" smooth="yes"/>
      <point x="432" y="201" type="line" smooth="yes"/>
      <point x="482" y="178"/>
      <point x="504" y="158"/>
      <point x="504" y="126" type="curve" smooth="yes"/>
      <point x="504" y="78"/>
      <point x="462" y="45"/>
      <point x="397" y="45" type="curve" smooth="yes"/>
      <point x="336" y="45"/>
      <point x="284" y="67"/>
      <point x="248" y="119" type="curve"/>
      <point x="197" y="80" type="line"/>
      <point x="242" y="17"/>
      <point x="313" y="-12"/>
    </contour>
  </outline>
</glyph>
<glyph name="ae" format="2">
  <advance width="876"/>
  <unicode hex="00E6"/>
  <outline>
    <contour>
      <point x="198" y="-7" type="curve" smooth="yes"/>
      <point x="275" y="-7"/>
      <point x="344" y="23"/>
      <point x="408" y="83" type="curve"/>
      <point x="450" y="26"/>
      <point x="520" y="-9"/>
      <point x="604" y="-9" type="curve" smooth="yes"/>
      <point x="669" y="-9"/>
      <point x="725" y="7"/>
      <point x="780" y="45" type="curve"/>
      <point x="742" y="96" type="line"/>
      <point x="705" y="70"/>
      <point x="656" y="55"/>
      <point x="607" y="55" type="curve" smooth="yes"/>
      <point x="510" y="55"/>
      <point x="436" y="128"/>
      <point x="434" y="228" type="curve"/>
      <point x="835" y="228" type="line"/>
      <point x="837" y="244"/>
      <point x="838" y="259"/>
      <point x="838" y="273" type="curve" smooth="yes"/>
      <point x="838" y="408"/>
      <point x="747" y="509"/>
      <point x="624" y="509" type="curve" smooth="yes"/>
      <point x="555" y="509"/>
      <point x="487" y="475"/>
      <point x="439" y="419" type="curve"/>
      <point x="417" y="477"/>
      <point x="358" y="510"/>
      <point x="270" y="510" type="curve" smooth="yes"/>
      <point x="215" y="510"/>
      <point x="157" y="497"/>
      <point x="87" y="468" type="curve"/>
      <point x="108" y="409" type="line"/>
      <point x="170" y="436"/>
      <point x="214" y="448"/>
      <point x="256" y="448" type="curve" smooth="yes"/>
      <point x="352" y="448"/>
      <point x="392" y="402"/>
      <point x="375" y="313" type="curve" smooth="yes"/>
      <point x="365" y="265" type="line"/>
      <point x="324" y="285"/>
      <point x="275" y="296"/>
      <point x="224" y="296" type="curve" smooth="yes"/>
      <point x="102" y="296"/>
      <point x="22" y="233"/>
      <point x="22" y="135" type="curve" smooth="yes"/>
      <point x="22" y="49"/>
      <point x="92" y="-7"/>
    </contour>
    <contour>
      <point x="441" y="287" type="line"/>
      <point x="462" y="377"/>
      <point x="534" y="444"/>
      <point x="618" y="444" type="curve" smooth="yes"/>
      <point x="701" y="444"/>
      <point x="763" y="378"/>
      <point x="769" y="287" type="curve"/>
    </contour>
    <contour>
      <point x="211" y="50" type="curve" smooth="yes"/>
      <point x="137" y="50"/>
      <point x="91" y="84"/>
      <point x="91" y="141" type="curve" smooth="yes"/>
      <point x="91" y="199"/>
      <point x="147" y="242"/>
      <point x="224" y="242" type="curve" smooth="yes"/>
      <point x="278" y="242"/>
      <point x="326" y="229"/>
      <point x="364" y="205" type="curve"/>
      <point x="366" y="175"/>
      <point x="373" y="148"/>
      <point x="384" y="124" type="curve"/>
      <point x="329" y="74"/>
      <point x="273" y="50"/>
    </contour>
  </outline>
</glyph>
<glyph name="eth" format="2">
  <advance width="588"/>
  <unicode hex="00F0"/>
  <outline>
    <contour>
      <point x="260" y="-9" type="curve" smooth="yes"/>
      <point x="434" y="-9"/>
      <point x="555" y="154"/>
      <point x="555" y="388" type="curve" smooth="yes"/>
      <point x="555" y="476"/>
      <point x="533" y="551"/>
      <point x="490" y="612" type="curve"/>
      <point x="597" y="663" type="line"/>
      <point x="576" y="711" type="line"/>
      <point x="456" y="654" type="line"/>
      <point x="424" y="686"/>
      <point x="385" y="713"/>
      <point x="339" y="734" type="curve"/>
      <point x="299" y="683" type="line"/>
      <point x="335" y="668"/>
      <point x="366" y="648"/>
      <point x="392" y="624" type="curve"/>
      <point x="297" y="579" type="line"/>
      <point x="317" y="530" type="line"/>
      <point x="428" y="583" type="line"/>
      <point x="468" y="526"/>
      <point x="489" y="454"/>
      <point x="487" y="374" type="curve"/>
      <point x="458" y="445"/>
      <point x="391" y="491"/>
      <point x="305" y="491" type="curve" smooth="yes"/>
      <point x="159" y="491"/>
      <point x="39" y="367"/>
      <point x="39" y="216" type="curve" smooth="yes"/>
      <point x="39" y="84"/>
      <point x="131" y="-9"/>
    </contour>
    <contour>
      <point x="265" y="58" type="curve" smooth="yes"/>
      <point x="173" y="58"/>
      <point x="108" y="124"/>
      <point x="108" y="218" type="curve" smooth="yes"/>
      <point x="108" y="331"/>
      <point x="199" y="428"/>
      <point x="305" y="428" type="curve" smooth="yes"/>
      <point x="395" y="428"/>
      <point x="462" y="359"/>
      <point x="462" y="267" type="curve" smooth="yes"/>
      <point x="462" y="155"/>
      <point x="370" y="58"/>
    </contour>
  </outline>
</glyph>
<glyph name="oslash" format="2">
  <advance width="580"/>
  <unicode hex="00F8"/>
  <outline>
    <contour>
      <point x="272" y="-10" type="curve" smooth="yes"/>
      <point x="418" y="-10"/>
      <point x="541" y="119"/>
      <point x="541" y="272" type="curve" smooth="yes"/>
      <point x="541" y="328"/>
      <point x="524" y="378"/>
      <point x="496" y="418" type="curve"/>
      <point x="581" y="501" type="line"/>
      <point x="510" y="501" type="line"/>
      <point x="462" y="454" type="line"/>
      <point x="422" y="490"/>
      <point x="368" y="511"/>
      <point x="308" y="511" type="curve" smooth="yes"/>
      <point x="162" y="511"/>
      <point x="39" y="382"/>
      <point x="39" y="229" type="curve" smooth="yes"/>
      <point x="39" y="173"/>
      <point x="55" y="123"/>
      <point x="84" y="83" type="curve"/>
      <point x="-1" y="0" type="line"/>
      <point x="69" y="0" type="line"/>
      <point x="117" y="47" type="line"/>
      <point x="157" y="11"/>
      <point x="211" y="-10"/>
    </contour>
    <contour>
      <point x="136" y="134" type="line"/>
      <point x="119" y="162"/>
      <point x="110" y="196"/>
      <point x="110" y="233" type="curve" smooth="yes"/>
      <point x="110" y="348"/>
      <point x="199" y="445"/>
      <point x="305" y="445" type="curve" smooth="yes"/>
      <point x="347" y="445"/>
      <point x="384" y="430"/>
      <point x="412" y="405" type="curve"/>
    </contour>
    <contour>
      <point x="275" y="56" type="curve" smooth="yes"/>
      <point x="233" y="56"/>
      <point x="196" y="71"/>
      <point x="167" y="96" type="curve"/>
      <point x="444" y="367" type="line"/>
      <point x="460" y="339"/>
      <point x="470" y="305"/>
      <point x="470" y="268" type="curve" smooth="yes"/>
      <point x="470" y="153"/>
      <point x="381" y="56"/>
    </contour>
  </outline>
</glyph>
<glyph name="Aogonek" format="2">
  <advance width="666"/>
  <unicode hex="0104"/>
  <outline>
    <contour>
      <point x="-49" y="0" type="line"/>
      <point x="35" y="0" type="line"/>
      <point x="168" y="220" type="line"/>
      <point x="490" y="220" type="line"/>
      <point x="531" y="0" type="line"/>
      <point x="547" y="0" type="line"/>
      <point x="466" y="-47"/>
      <point x="425" y="-96"/>
      <point x="425" y="-149" type="curve" smooth="yes"/>
      <point x="425" y="-193"/>
      <point x="460" y="-222"/>
      <point x="513" y="-222" type="curve" smooth="yes"/>
      <point x="536" y="-222"/>
      <point x="558" y="-216"/>
      <point x="579" y="-206" type="curve"/>
      <point x="574" y="-166" type="line"/>
      <point x="560" y="-173"/>
      <point x="543" y="-177"/>
      <point x="528" y="-177" type="curve" smooth="yes"/>
      <point x="498" y="-177"/>
      <point x="478" y="-160"/>
      <point x="478" y="-134" type="curve" smooth="yes"/>
      <point x="478" y="-88"/>
      <point x="519" y="-47"/>
      <point x="609" y="0" type="curve"/>
      <point x="473" y="700" type="line"/>
      <point x="381" y="700" type="line"/>
    </contour>
    <contour>
      <point x="208" y="286" type="line"/>
      <point x="414" y="627" type="line"/>
      <point x="478" y="286" type="line"/>
    </contour>
  </outline>
</glyph>
<glyph name="aogonek" format="2">
  <advance width="506"/>
  <unicode hex="0105"/>
  <outline>
    <contour>
      <point x="301" y="-222" type="curve" smooth="yes"/>
      <point x="324" y="-222"/>
      <point x="346" y="-216"/>
      <point x="367" y="-206" type="curve"/>
      <point x="362" y="-166" type="line"/>
      <point x="348" y="-173"/>
      <point x="331" y="-177"/>
      <point x="316" y="-177" type="curve" smooth="yes"/>
      <point x="286" y="-177"/>
      <point x="266" y="-160"/>
      <point x="266" y="-134" type="curve" smooth="yes"/>
      <point x="266" y="-88"/>
      <point x="307" y="-47"/>
      <point x="397" y="0" type="curve"/>
      <point x="464" y="317" type="line" smooth="yes"/>
      <point x="489" y="437"/>
      <point x="422" y="510"/>
      <point x="286" y="510" type="curve" smooth="yes"/>
      <point x="232" y="510"/>
      <point x="173" y="497"/>
      <point x="104" y="468" type="curve"/>
      <point x="124" y="409" type="line"/>
      <point x="186" y="436"/>
      <point x="231" y="448"/>
      <point x="274" y="448" type="curve" smooth="yes"/>
      <point x="372" y="448"/>
      <point x="412" y="403"/>
      <point x="393" y="312" type="curve" smooth="yes"/>
      <point x="380" y="253" type="line"/>
      <point x="336" y="280"/>
      <point x="278" y="296"/>
      <point x="220" y="296" type="curve" smooth="yes"/>
      <point x="96" y="296"/>
      <point x="16" y="231"/>
      <point x="16" y="133" type="curve" smooth="yes"/>
      <point x="16" y="48"/>
      <point x="84" y="-7"/>
      <point x="187" y="-7" type="curve" smooth="yes"/>
      <point x="241" y="-7"/>
      <point x="290" y="9"/>
      <point x="335" y="41" type="curve"/>
      <point x="326" y="0" type="line"/>
      <point x="335" y="0" type="line"/>
      <point x="254" y="-47"/>
      <point x="213" y="-96"/>
      <point x="213" y="-149" type="curve" smooth="yes"/>
      <point x="213" y="-193"/>
      <point x="248" y="-222"/>
    </contour>
    <contour>
      <point x="206" y="50" type="curve" smooth="yes"/>
      <point x="130" y="50"/>
      <point x="85" y="84"/>
      <point x="85" y="140" type="curve" smooth="yes"/>
      <point x="85" y="199"/>
      <point x="141" y="242"/>
      <point x="219" y="242" type="curve" smooth="yes"/>
      <point x="280" y="242"/>
      <point x="329" y="227"/>
      <point x="368" y="195" type="curve"/>
      <point x="348" y="101" type="line"/>
      <point x="305" y="66"/>
      <point x="258" y="50"/>
    </contour>
  </outline>
</glyph>
<glyph name="dcroat" format="2">
  <advance width="578"/>
  <unicode hex="0111"/>
  <outline>
    <contour>
      <point x="259" y="-8" type="curve" smooth="yes"/>
      <point x="309" y="-8"/>
      <point x="356" y="7"/>
      <point x="397" y="35" type="curve"/>
      <point x="390" y="0" type="line"/>
      <point x="462" y="0" type="line"/>
      <point x="586" y="586" type="line"/>
      <point x="649" y="586" type="line"/>
      <point x="661" y="644" type="line"/>
      <point x="599" y="644" type="line"/>
      <point x="614" y="717" type="line"/>
      <point x="539" y="700" type="line"/>
      <point x="527" y="644" type="line"/>
      <point x="367" y="644" type="line"/>
      <point x="355" y="586" type="line"/>
      <point x="515" y="586" type="line"/>
      <point x="483" y="436" type="line"/>
      <point x="442" y="482"/>
      <point x="382" y="508"/>
      <point x="314" y="508" type="curve" smooth="yes"/>
      <point x="161" y="508"/>
      <point x="38" y="379"/>
      <point x="38" y="222" type="curve" smooth="yes"/>
      <point x="38" y="90"/>
      <point x="132" y="-8"/>
    </contour>
    <contour>
      <point x="275" y="56" type="curve" smooth="yes"/>
      <point x="178" y="56"/>
      <point x="109" y="128"/>
      <point x="109" y="228" type="curve" smooth="yes"/>
      <point x="109" y="347"/>
      <point x="201" y="443"/>
      <point x="316" y="443" type="curve" smooth="yes"/>
      <point x="381" y="443"/>
      <point x="440" y="411"/>
      <point x="467" y="363" type="curve"/>
      <point x="413" y="111" type="line"/>
      <point x="376" y="76"/>
      <point x="326" y="56"/>
    </contour>
  </outline>
</glyph>
<glyph name="Eogonek" format="2">
  <advance width="604"/>
  <unicode hex="0118"/>
  <outline>
    <contour>
      <point x="421" y="-222" type="curve" smooth="yes"/>
      <point x="444" y="-222"/>
      <point x="466" y="-216"/>
      <point x="487" y="-206" type="curve"/>
      <point x="482" y="-166" type="line"/>
      <point x="468" y="-173"/>
      <point x="451" y="-177"/>
      <point x="436" y="-177" type="curve" smooth="yes"/>
      <point x="406" y="-177"/>
      <point x="386" y="-160"/>
      <point x="386" y="-134" type="curve" smooth="yes"/>
      <point x="386" y="-88"/>
      <point x="427" y="-47"/>
      <point x="517" y="0" type="curve"/>
      <point x="531" y="68" type="line"/>
      <point x="111" y="68" type="line"/>
      <point x="165" y="320" type="line"/>
      <point x="437" y="320" type="line"/>
      <point x="451" y="387" type="line"/>
      <point x="179" y="387" type="line"/>
      <point x="232" y="632" type="line"/>
      <point x="647" y="632" type="line"/>
      <point x="662" y="700" type="line"/>
      <point x="171" y="700" type="line"/>
      <point x="22" y="0" type="line"/>
      <point x="455" y="0" type="line"/>
      <point x="374" y="-47"/>
      <point x="333" y="-96"/>
      <point x="333" y="-149" type="curve" smooth="yes"/>
      <point x="333" y="-193"/>
      <point x="368" y="-222"/>
    </contour>
  </outline>
</glyph>
<glyph name="gcommaaccent" format="2">
  <advance width="581"/>
  <unicode hex="0123"/>
  <outline>
    <contour>
      <point x="459" y="787" type="line"/>
      <point x="404" y="787" type="line"/>
      <point x="306" y="608" type="line"/>
      <point x="381" y="608" type="line"/>
    </contour>
    <component base="g"/>
  </outline>
</glyph>
<glyph name="iogonek" format="2">
  <advance width="198"/>
  <unicode hex="012F"/>
  <outline>
    <contour>
      <point x="177" y="597" type="curve" smooth="yes"/>
      <point x="206" y="597"/>
      <point x="232" y="623"/>
      <point x="232" y="653" type="curve" smooth="yes"/>
      <point x="232" y="678"/>
      <point x="213" y="697"/>
      <point x="188" y="697" type="curve" smooth="yes"/>
      <point x="159" y="697"/>
      <point x="133" y="671"/>
      <point x="133" y="642" type="curve" smooth="yes"/>
      <point x="133" y="617"/>
      <point x="152" y="597"/>
    </contour>
    <contour>
      <point x="-14" y="-222" type="curve" smooth="yes"/>
      <point x="9" y="-222"/>
      <point x="31" y="-216"/>
      <point x="52" y="-206" type="curve"/>
      <point x="47" y="-166" type="line"/>
      <point x="33" y="-173"/>
      <point x="16" y="-177"/>
      <point x="1" y="-177" type="curve" smooth="yes"/>
      <point x="-29" y="-177"/>
      <point x="-49" y="-160"/>
      <point x="-49" y="-134" type="curve" smooth="yes"/>
      <point x="-49" y="-88"/>
      <point x="-8" y="-47"/>
      <point x="82" y="0" type="curve"/>
      <point x="188" y="501" type="line"/>
      <point x="116" y="501" type="line"/>
      <point x="10" y="0" type="line"/>
      <point x="20" y="0" type="line"/>
      <point x="-61" y="-47"/>
      <point x="-102" y="-96"/>
      <point x="-102" y="-149" type="curve" smooth="yes"/>
      <point x="-102" y="-193"/>
      <point x="-67" y="-222"/>
    </contour>
  </outline>
</glyph>
<glyph name="OE" format="2">
  <advance width="1067"/>
  <unicode hex="0152"/>
  <outline>
    <contour>
      <point x="373" y="0" type="curve" smooth="yes"/>
      <point x="979" y="0" type="line"/>
      <point x="994" y="68" type="line"/>
      <point x="581" y="68" type="line"/>
      <point x="666" y="125"/>
      <point x="727" y="217"/>
      <point x="746" y="320" type="curve"/>
      <point x="921" y="320" type="line"/>
      <point x="935" y="387" type="line"/>
      <point x="752" y="387" type="line"/>
      <point x="752" y="488"/>
      <point x="707" y="578"/>
      <point x="633" y="632" type="curve"/>
      <point x="1114" y="632" type="line"/>
      <point x="1128" y="700" type="line"/>
      <point x="442" y="700" type="line" smooth="yes"/>
      <point x="237" y="700"/>
      <point x="62" y="523"/>
      <point x="62" y="314" type="curve" smooth="yes"/>
      <point x="62" y="134"/>
      <point x="195" y="0"/>
    </contour>
    <contour>
      <point x="379" y="71" type="curve" smooth="yes"/>
      <point x="241" y="71"/>
      <point x="139" y="175"/>
      <point x="139" y="318" type="curve" smooth="yes"/>
      <point x="139" y="486"/>
      <point x="275" y="629"/>
      <point x="436" y="629" type="curve" smooth="yes"/>
      <point x="574" y="629"/>
      <point x="675" y="526"/>
      <point x="675" y="383" type="curve" smooth="yes"/>
      <point x="675" y="212"/>
      <point x="542" y="71"/>
    </contour>
  </outline>
</glyph>
<glyph name="Scedilla" format="2">
  <advance width="590"/>
  <unicode hex="015E"/>
  <outline>
    <contour>
      <point x="237" y="-228" type="curve" smooth="yes"/>
      <point x="305" y="-228"/>
      <point x="356" y="-186"/>
      <point x="356" y="-129" type="curve" smooth="yes"/>
      <point x="356" y="-88"/>
      <point x="327" y="-61"/>
      <point x="278" y="-56" type="curve"/>
      <point x="301" y="-10" type="line"/>
      <point x="456" y="-6"/>
      <point x="557" y="79"/>
      <point x="557" y="207" type="curve" smooth="yes"/>
      <point x="557" y="297"/>
      <point x="500" y="351"/>
      <point x="370" y="384" type="curve" smooth="yes"/>
      <point x="276" y="407" type="line" smooth="yes"/>
      <point x="190" y="430"/>
      <point x="152" y="464"/>
      <point x="152" y="520" type="curve" smooth="yes"/>
      <point x="152" y="595"/>
      <point x="216" y="643"/>
      <point x="318" y="643" type="curve" smooth="yes"/>
      <point x="400" y="643"/>
      <point x="481" y="607"/>
      <point x="552" y="540" type="curve"/>
      <point x="601" y="596" type="line"/>
      <point x="524" y="668"/>
      <point x="424" y="709"/>
      <point x="324" y="709" type="curve" smooth="yes"/>
      <point x="174" y="709"/>
      <point x="78" y="632"/>
      <point x="78" y="512" type="curve" smooth="yes"/>
      <point x="78" y="427"/>
      <point x="134" y="370"/>
      <point x="247" y="340" type="curve" smooth="yes"/>
      <point x="342" y="316" type="line" smooth="yes"/>
      <point x="442" y="290"/>
      <point x="482" y="256"/>
      <point x="482" y="196" type="curve" smooth="yes"/>
      <point x="482" y="113"/>
      <point x="405" y="55"/>
      <point x="295" y="55" type="curve" smooth="yes"/>
      <point x="200" y="55"/>
      <point x="116" y="102"/>
      <point x="55" y="188" type="curve"/>
      <point x="-1" y="140" type="line"/>
      <point x="63" y="52"/>
      <point x="154" y="0"/>
      <point x="259" y="-9" type="curve"/>
      <point x="218" y="-91" type="line"/>
      <point x="247" y="-91" type="line" smooth="yes"/>
      <point x="285" y="-91"/>
      <point x="308" y="-107"/>
      <point x="308" y="-134" type="curve" smooth="yes"/>
      <point x="308" y="-165"/>
      <point x="279" y="-186"/>
      <point x="238" y="-186" type="curve" smooth="yes"/>
      <point x="207" y="-186"/>
      <point x="182" y="-175"/>
      <point x="160" y="-151" type="curve"/>
      <point x="127" y="-181" type="line"/>
      <point x="151" y="-211"/>
      <point x="191" y="-228"/>
    </contour>
  </outline>
</glyph>
<glyph name="Tcedilla" format="2">
  <advance width="605"/>
  <unicode hex="0162"/>
  <outline>
    <contour>
      <point x="202" y="-228" type="curve" smooth="yes"/>
      <point x="270" y="-228"/>
      <point x="321" y="-186"/>
      <point x="321" y="-129" type="curve" smooth="yes"/>
      <point x="321" y="-88"/>
      <point x="292" y="-61"/>
      <point x="243" y="-56" type="curve"/>
      <point x="271" y="0" type="line"/>
      <point x="286" y="0" type="line"/>
      <point x="420" y="631" type="line"/>
      <point x="668" y="631" type="line"/>
      <point x="683" y="700" type="line"/>
      <point x="112" y="700" type="line"/>
      <point x="97" y="631" type="line"/>
      <point x="345" y="631" type="line"/>
      <point x="211" y="0" type="line"/>
      <point x="228" y="0" type="line"/>
      <point x="183" y="-91" type="line"/>
      <point x="212" y="-91" type="line" smooth="yes"/>
      <point x="250" y="-91"/>
      <point x="273" y="-107"/>
      <point x="273" y="-134" type="curve" smooth="yes"/>
      <point x="273" y="-165"/>
      <point x="244" y="-186"/>
      <point x="203" y="-186" type="curve" smooth="yes"/>
      <point x="172" y="-186"/>
      <point x="147" y="-175"/>
      <point x="125" y="-151" type="curve"/>
      <point x="92" y="-181" type="line"/>
      <point x="116" y="-211"/>
      <point x="156" y="-228"/>
    </contour>
  </outline>
</glyph>
<glyph name="circumflex" format="2">
  <advance width="600"/>
  <unicode hex="02C6"/>
  <outline>
    <contour>
      <point x="233" y="596" type="line"/>
      <point x="295" y="596" type="line"/>
      <point x="394" y="676" type="line"/>
      <point x="458" y="596" type="line"/>
      <point x="516" y="596" type="line"/>
      <point x="440" y="717" type="line"/>
      <point x="361" y="717" type="line"/>
    </contour>
  </outline>
</glyph>
<glyph name="caron" format="2">
  <advance width="600"/>
  <unicode hex="02C7"/>
  <outline>
    <contour>
      <point x="337" y="598" type="line"/>
      <point x="416" y="598" type="line"/>
      <point x="543" y="718" type="line"/>
      <point x="479" y="718" type="line"/>
      <point x="382" y="639" type="line"/>
      <point x="319" y="718" type="line"/>
      <point x="261" y="718" type="line"/>
    </contour>
  </outline>
</glyph>
<glyph name="ogonek" format="2">
  <advance width="600"/>
  <unicode hex="02DB"/>
  <outline>
    <contour>
      <point x="203" y="-222" type="curve" smooth="yes"/>
      <point x="226" y="-222"/>
      <point x="248" y="-216"/>
      <point x="269" y="-206" type="curve"/>
      <point x="264" y="-166" type="line"/>
      <point x="250" y="-173"/>
      <point x="233" y="-177"/>
      <point x="218" y="-177" type="curve" smooth="yes"/>
      <point x="188" y="-177"/>
      <point x="168" y="-160"/>
      <point x="168" y="-134" type="curve" smooth="yes"/>
      <point x="168" y="-88"/>
      <point x="209" y="-47"/>
      <point x="299" y="0" type="curve"/>
      <point x="270" y="18" type="line"/>
      <point x="167" y="-34"/>
      <point x="115" y="-89"/>
      <point x="115" y="-149" type="curve" smooth="yes"/>
      <point x="115" y="-193"/>
      <point x="150" y="-222"/>
    </contour>
  </outline>
</glyph>
<glyph name="tilde" format="2">
  <advance width="600"/>
  <unicode hex="02DC"/>
  <outline>
    <contour>
      <point x="260" y="599" type="line"/>
      <point x="276" y="636"/>
      <point x="291" y="651"/>
      <point x="311" y="651" type="curve" smooth="yes"/>
      <point x="352" y="651"/>
      <point x="396" y="594"/>
      <point x="452" y="594" type="curve" smooth="yes"/>
      <point x="494" y="594"/>
      <point x="528" y="623"/>
      <point x="555" y="686" type="curve"/>
      <point x="505" y="701" type="line"/>
      <point x="487" y="661"/>
      <point x="474" y="648"/>
      <point x="453" y="648" type="curve" smooth="yes"/>
      <point x="412" y="648"/>
      <point x="367" y="705"/>
      <point x="312" y="705" type="curve" smooth="yes"/>
      <point x="271" y="705"/>
      <point x="239" y="676"/>
      <point x="211" y="614" type="curve"/>
    </contour>
  </outline>
</glyph>
<glyph name="hungarumlaut" format="2">
  <advance width="600"/>
  <unicode hex="02DD"/>
  <outline>
    <contour>
      <point x="363" y="716" type="line"/>
      <point x="237" y="603" type="line"/>
      <point x="301" y="603" type="line"/>
      <point x="449" y="716" type="line"/>
    </contour>
    <contour>
      <point x="525" y="716" type="line"/>
      <point x="399" y="603" type="line"/>
      <point x="461" y="603" type="line"/>
      <point x="611" y="716" type="line"/>
    </contour>
  </outline>
</glyph>
<glyph name="uni2015" format="2">
  <advance width="929"/>
  <unicode hex="2015"/>
  <outline>
    <contour>
      <point x="61" y="314" type="line"/>
      <point x="47" y="248" type="line"/>
      <point x="879" y="248" type="line"/>
      <point x="893" y="314" type="line"/>
    </contour>
  </outline>
</glyph>
<glyph name="quotedblleft" format="2">
  <advance width="386"/>
  <unicode hex="201C"/>
  <outline>
    <contour>
      <point x="291" y="719" type="line"/>
      <point x="233" y="719" type="line"/>
      <point x="110" y="508" type="line"/>
      <point x="190" y="508" type="line"/>
    </contour>
    <contour>
      <point x="427" y="719" type="line"/>
      <point x="369" y="719" type="line"/>
      <point x="246" y="508" type="line"/>
      <point x="326" y="508" type="line"/>
    </contour>
  </outline>
</glyph>
<glyph name="daggerdbl" format="2">
  <advance width="417"/>
  <unicode hex="2021"/>
  <outline>
    <contour>
      <point x="123" y="0" type="line"/>
      <point x="187" y="0" type="line"/>
      <point x="229" y="198" type="line"/>
      <point x="353" y="198" type="line"/>
      <point x="366" y="258" type="line"/>
      <point x="242" y="258" type="line"/>
      <point x="281" y="442" type="line"/>
      <point x="405" y="442" type="line"/>
      <point x="418" y="502" type="line"/>
      <point x="294" y="502" type="line"/>
      <point x="336" y="700" type="line"/>
      <point x="272" y="700" type="line"/>
      <point x="230" y="502" type="line"/>
      <point x="106" y="502" type="line"/>
      <point x="94" y="442" type="line"/>
      <point x="217" y="442" type="line"/>
      <point x="178" y="258" type="line"/>
      <point x="54" y="258" type="line"/>
      <point x="42" y="198" type="line"/>
      <point x="165" y="198" type="line"/>
    </contour>
  </outline>
</glyph>
<glyph name="bullet" format="2">
  <advance width="322"/>
  <unicode hex="2022"/>
  <outline>
    <contour>
      <point x="172" y="253" type="curve" smooth="yes"/>
      <point x="230" y="253"/>
      <point x="282" y="306"/>
      <point x="282" y="366" type="curve" smooth="yes"/>
      <point x="282" y="416"/>
      <point x="243" y="454"/>
      <point x="194" y="454" type="curve" smooth="yes"/>
      <point x="134" y="454"/>
      <point x="83" y="401"/>
      <point x="83" y="341" type="curve" smooth="yes"/>
      <point x="83" y="292"/>
      <point x="122" y="253"/>
    </contour>
  </outline>
</glyph>
<glyph name="fraction" format="2">
  <advance width="566"/>
  <unicode hex="2044"/>
  <outline>
    <contour>
      <point x="3" y="0" type="line"/>
      <point x="61" y="0" type="line"/>
      <point x="598" y="700" type="line"/>
      <point x="537" y="700" type="line"/>
    </contour>
  </outline>
</glyph>
<glyph name="uni2070" format="2">
  <advance width="347"/>
  <unicode hex="2070"/>
  <outline>
    <contour>
      <point x="208" y="345" type="curve" smooth="yes"/>
      <point x="303" y="345"/>
      <point x="381" y="446"/>
      <point x="381" y="567" type="curve" smooth="yes"/>
      <point x="381" y="651"/>
      <point x="332" y="705"/>
      <point x="255" y="705" type="curve" smooth="yes"/>
      <point x="160" y="705"/>
      <point x="82" y="604"/>
      <point x="82" y="483" type="curve" smooth="yes"/>
      <point x="82" y="399"/>
      <point x="131" y="345"/>
    </contour>
    <contour>
      <point x="213" y="391" type="curve" smooth="yes"/>
      <point x="163" y="391"/>
      <point x="132" y="426"/>
      <point x="132" y="485" type="curve" smooth="yes"/>
      <point x="132" y="579"/>
      <point x="186" y="660"/>
      <point x="249" y="660" type="curve" smooth="yes"/>
      <point x="300" y="660"/>
      <point x="332" y="624"/>
      <point x="332" y="566" type="curve" smooth="yes"/>
      <point x="332" y="471"/>
      <point x="278" y="391"/>
    </contour>
  </outline>
</glyph>
<glyph name="uni2074" format="2">
  <advance width="324"/>
  <unicode hex="2074"/>
  <outline>
    <contour>
      <point x="236" y="350" type="line"/>
      <point x="287" y="350" type="line"/>
      <point x="306" y="438" type="line"/>
      <point x="347" y="438" type="line"/>
      <point x="357" y="482" type="line"/>
      <point x="315" y="482" type="line"/>
      <point x="361" y="700" type="line"/>
      <point x="304" y="700" type="line"/>
      <point x="69" y="480" type="line"/>
      <point x="60" y="438" type="line"/>
      <point x="255" y="438" type="line"/>
    </contour>
    <contour>
      <point x="130" y="482" type="line"/>
      <point x="298" y="639" type="line"/>
      <point x="264" y="482" type="line"/>
    </contour>
  </outline>
</glyph>
<glyph name="uni2080" format="2">
  <advance width="347"/>
  <unicode hex="2080"/>
  <outline>
    <contour>
      <point x="134" y="-5" type="curve" smooth="yes"/>
      <point x="229" y="-5"/>
      <point x="307" y="96"/>
      <point x="307" y="217" type="curve" smooth="yes"/>
      <point x="307" y="301"/>
      <point x="258" y="355"/>
      <point x="181" y="355" type="curve" smooth="yes"/>
      <point x="86" y="355"/>
      <point x="8" y="254"/>
      <point x="8" y="133" type="curve" smooth="yes"/>
      <point x="8" y="49"/>
      <point x="57" y="-5"/>
    </contour>
    <contour>
      <point x="139" y="41" type="curve" smooth="yes"/>
      <point x="89" y="41"/>
      <point x="58" y="76"/>
      <point x="58" y="135" type="curve" smooth="yes"/>
      <point x="58" y="229"/>
      <point x="112" y="310"/>
      <point x="175" y="310" type="curve" smooth="yes"/>
      <point x="226" y="310"/>
      <point x="258" y="274"/>
      <point x="258" y="216" type="curve" smooth="yes"/>
      <point x="258" y="121"/>
      <point x="204" y="41"/>
    </contour>
  </outline>
</glyph>
<glyph name="uni2081" format="2">
  <advance width="162"/>
  <unicode hex="2081"/>
  <outline>
    <contour>
      <point x="29" y="0" type="line"/>
      <point x="79" y="0" type="line"/>
      <point x="154" y="350" type="line"/>
      <point x="122" y="350" type="line"/>
      <point x="34" y="315" type="line"/>
      <point x="23" y="270" type="line"/>
      <point x="92" y="296" type="line"/>
    </contour>
  </outline>
</glyph>
<glyph name="acutecomb" format="2">
  <anchor x="355" y="501" name="_top"/>
  <outline>
    <contour>
      <point x="324" y="600" type="line"/>
      <point x="391" y="600" type="line"/>
      <point x="536" y="716" type="line"/>
      <point x="441" y="716" type="line"/>
    </contour>
  </outline>
</glyph>
<glyph name="commaaccent" format="2">
  <advance width="600"/>
  <outline>
    <contour>
      <point x="115" y="-264" type="line"/>
      <point x="170" y="-264" type="line"/>
      <point x="268" y="-85" type="line"/>
      <point x="193" y="-85" type="line"/>
    </contour>
  </outline>
</glyph>
<glyph name="gcommaaccent.alt" format="2">
  <advance width="520"/>
  <outline>
    <contour>
      <point x="425" y="777" type="line"/>
      <point x="370" y="777" type="line"/>
      <point x="272" y="598" type="line"/>
      <point x="347" y="598" type="line"/>
    </contour>
    <component base="g.alt"/>
  </outline>
</glyph>
<glyph name="seven.tab" format="2">
  <advance width="600"/>
  <outline>
    <contour>
      <point x="64" y="0" type="line"/>
      <point x="148" y="0" type="line"/>
      <point x="629" y="644" type="line"/>
      <point x="641" y="700" type="line"/>
      <point x="142" y="700" type="line"/>
      <point x="128" y="637" type="line"/>
      <point x="547" y="637" type="line"/>
    </contour>
  </outline>
</glyph>
<glyph name="uni030B" format="2">
  <anchor x="354" y="501" name="_top"/>
  <outline>
    <contour>
      <point x="363" y="716" type="line"/>
      <point x="237" y="603" type="line"/>
      <point x="301" y="603" type="line"/>
      <point x="449" y="716" type="line"/>
    </contour>
    <contour>
      <point x="525" y="716" type="line"/>
      <point x="399" y="603" type="line"/>
      <point x="461" y="603" type="line"/>
      <point x="611" y="716" type="line"/>
    </contour>
  </outline>
</glyph>
